<svg width="512" height="512" viewBox="0 0 512 512" fill="none" xmlns="http://www.w3.org/2000/svg">
<rect width="512" height="512" rx="64" fill="#95C121"/>
<g transform="translate(100, 90) scale(7.2)">
<path d="M13.2461 19.46C14.3161 15.16 18.6661 11.67 22.9661 11.67C22.9661 11.67 38.5761 11.67 38.6461 11.67C39.7261 11.67 40.8061 10.8 41.0761 9.72C41.3461 8.65 40.6861 7.77 39.6161 7.77C39.5461 7.77 23.9361 7.77 23.9361 7.77C17.4861 7.77 10.9561 13 9.35612 19.45L8.38612 23.34C6.77612 29.79 10.7061 35.02 17.1661 35.02C17.1661 35.02 32.7761 35.02 32.8461 35.02C33.9161 35.02 35.0161 34.15 35.2761 33.08C35.5461 32 34.8861 31.13 33.8161 31.13C33.7361 31.13 18.1361 31.13 18.1361 31.13C13.8361 31.13 11.2161 27.64 12.2861 23.34L13.2461 19.46ZM31.8761 38.93C31.7961 38.93 16.1961 38.93 16.1961 38.93C7.59612 38.93 2.35612 31.96 4.49612 23.36L5.46612 19.47C7.60612 10.87 16.3161 3.89 24.9161 3.89H40.3861V3.86C40.4561 3.87 40.5261 3.89 40.5961 3.89C41.6761 3.89 42.7561 3.02 43.0261 1.94C43.2961 0.87 42.6361 0 41.5661 0C41.4961 0 41.4161 0.0200005 41.3461 0.0200005L41.3561 0H25.8761C15.1261 0 4.23612 8.72 1.56612 19.47L0.596118 23.36C-2.07388 34.1 4.47612 42.82 15.2261 42.82C15.2261 42.82 30.8361 42.82 30.9061 42.82C31.9761 42.82 33.0661 41.95 33.3361 40.87C33.6061 39.8 32.9461 38.93 31.8761 38.93Z" fill="white"/>
</g>
</svg>
