<svg xmlns="http://www.w3.org/2000/svg" viewBox="0 0 32 32" width="32" height="32">
  <circle cx="16" cy="16" r="15" fill="#fff" stroke="#000" stroke-width="1"/>
  <path d="M16 1a15 15 0 1 0 0 30 15 15 0 0 0 0-30zm0 2c1.9 0 3.7.4 5.3 1.1l-2.1 2.7-3.2-.8-3.2.8-2.1-2.7A13 13 0 0 1 16 3zm-8.5 3.5l2.3 3-.5 3.5-3 1.8-3.1-.3A13 13 0 0 1 7.5 6.5zm17 0a13 13 0 0 1 4.3 5l-3.1.3-3-1.8-.5-3.5 2.3-3zM16 8l3.5 2.5.5 4-3 3h-2l-3-3 .5-4L16 8zM4 14.5l3 .3 2 3.2-.8 3.5-2.7 1.7A13 13 0 0 1 4 14.5zm24 0c0 3-.9 5.8-2.5 8.2l-2.7-1.7-.8-3.5 2-3.2 3-.3zM10 19l1 3.5-2 3a13 13 0 0 1-2.2-2.2l1.7-2.5L10 19zm12 0l1.5 1.8 1.7 2.5a13 13 0 0 1-2.2 2.2l-2-3 1-3.5zm-9 4.5h6l1.8 2.3a13 13 0 0 1-9.6 0l1.8-2.3z" fill="#000"/>
</svg>
